<?xml version="1.0" encoding="utf-8"?>
<!-- Generator: Adobe Illustrator 26.0.1, SVG Export Plug-In . SVG Version: 6.00 Build 0)  -->
<svg version="1.1" id="圖層_1" xmlns="http://www.w3.org/2000/svg" xmlns:xlink="http://www.w3.org/1999/xlink" x="0px" y="0px"
	 viewBox="0 0 128 64" style="enable-background:new 0 0 128 64;" xml:space="preserve">
<style type="text/css">
	.st0{fill:#3A302E;}
</style>
<g>
	<g>
		<g>
			<g>
				<g>
					<g>
						<path class="st0" d="M35.9,27.4c0,0,0.3,0.2,0.4,0.2C36.2,27.5,35.8,27.3,35.9,27.4z"/>
						<polygon class="st0" points="35.3,26.5 35.4,26.6 35.1,26.4 						"/>
						<path class="st0" d="M35.5,26.2c-0.6-0.3,0,0.2-0.2,0.1l-0.1-0.1l0.5,0.3C35.6,26.5,35.3,26.2,35.5,26.2z"/>
						<path class="st0" d="M36.9,26.9C36.7,26.7,36.7,26.7,36.9,26.9C36.8,26.9,36.8,26.9,36.9,26.9C36.9,26.9,36.9,26.9,36.9,26.9z
							"/>
						<path class="st0" d="M36.9,26.9C36.9,26.9,37.1,27,36.9,26.9L36.9,26.9z"/>
						<path class="st0" d="M36.8,26.6l0.2,0.2c0.1,0.1,0.2,0.1,0.3,0.1C37.2,26.8,37.1,26.8,36.8,26.6z"/>
						<path class="st0" d="M36.4,26.3L36.4,26.3C36.5,26.4,36.6,26.4,36.4,26.3z"/>
						<path class="st0" d="M36.6,26.6l-0.2-0.2c-0.1-0.1-0.3-0.2,0.1,0.1C36.4,26.4,36.5,26.5,36.6,26.6z"/>
						<path class="st0" d="M36.5,26.5c-0.1-0.1-0.3-0.1-0.4-0.2C36.1,26.4,36.6,26.7,36.5,26.5z"/>
						<path class="st0" d="M34.9,25.8l-0.2-0.1L34.9,25.8C34.8,25.8,35.1,25.9,34.9,25.8z"/>
						<path class="st0" d="M37.3,26.6c-0.1-0.1-0.4-0.2-0.5-0.3l0.1,0.1C37,26.4,37.1,26.5,37.3,26.6z"/>
						<path class="st0" d="M36.8,26.3l-0.2-0.2C36.5,26.1,36.6,26.2,36.8,26.3z"/>
						<polygon class="st0" points="35.7,25.9 36.2,26.3 35.7,25.9 						"/>
						<polygon class="st0" points="37.4,26.4 37.7,26.6 37.3,26.3 						"/>
						<path class="st0" d="M37.5,26.3c0.2,0.2,0.4,0.2,0.6,0.4c0-0.1-0.2-0.2-0.4-0.4C37.7,26.3,37.7,26.4,37.5,26.3z"/>
						<path class="st0" d="M37.4,26c0.1,0.1,0.1,0.1,0.2,0.2C37.6,26.2,37.5,26.1,37.4,26z"/>
						<path class="st0" d="M36.7,26c0.1,0,0.3,0.2,0.4,0.2L36.7,26L36.7,26z"/>
						<path class="st0" d="M36.7,26L36.7,26C36.8,26,36.8,26,36.7,26C36.8,26,36.8,26,36.7,26z"/>
						<path class="st0" d="M36.7,26.1L36.7,26.1C36.7,26,36.7,26,36.7,26.1z"/>
						<path class="st0" d="M36.1,26c-0.2-0.2-0.4-0.4-0.7-0.5C35.7,25.7,35.9,25.8,36.1,26z"/>
						<path class="st0" d="M36.2,25.8l-0.1,0c0.1,0.1,0.2,0.1,0.3,0.2L36.2,25.8z"/>
						<polygon class="st0" points="36.1,25.7 36.2,25.8 36.3,25.8 						"/>
						<path class="st0" d="M37,25.9c-0.1-0.1-0.1-0.2-0.1-0.2c-0.1,0-0.1,0-0.2,0C36.8,25.8,37,25.9,37,25.9z"/>
						<path class="st0" d="M36.8,25.9L36.8,25.9C36.8,25.9,36.8,25.9,36.8,25.9z"/>
						<path class="st0" d="M37,25.4C37,25.4,37,25.4,37,25.4L37,25.4L37,25.4z"/>
						<path class="st0" d="M36.6,25.7c-0.1,0,0,0,0.1,0.1C36.7,25.8,36.7,25.7,36.6,25.7C36.6,25.7,36.6,25.7,36.6,25.7z"/>
						<path class="st0" d="M37.3,25.8c-0.1,0-0.2-0.1-0.2-0.1C37.2,25.8,37.4,25.9,37.3,25.8z"/>
						<path class="st0" d="M36.9,26C36.9,26,36.9,26,36.9,26C37,26,37,26,36.9,26z"/>
						<path class="st0" d="M36.9,26c0,0-0.1-0.1-0.2-0.2c0,0,0.1,0.1,0.1,0.1C36.8,25.9,36.9,26,36.9,26z"/>
						<path class="st0" d="M34.8,23.8c0.3,0.2,0.6,0.5,0.2,0.3c0.2,0.2,1.3,0.9,2,1.3c-0.1-0.1-0.3-0.2-0.4-0.4
							c-0.2-0.1-0.5-0.2-0.8-0.4c-0.1-0.2,0.2,0,0.4,0.1c-0.4-0.2-0.5-0.5-1.2-0.9l0.2,0.2C35,24,34.9,23.9,34.8,23.8z"/>
						<path class="st0" d="M36.9,25.5L36.9,25.5c0.1,0.1,0.2,0.1,0.5,0.3c-0.1-0.1-0.3-0.2-0.4-0.3L36.9,25.5L36.9,25.5z"/>
						<path class="st0" d="M36.8,25.6c-0.4-0.3-0.5-0.4-0.9-0.6c0,0.1,0.3,0.2,0.4,0.4C36.3,25.2,36.5,25.5,36.8,25.6
							C36.8,25.6,36.8,25.7,36.8,25.6c0.1,0.1,0.1,0.1,0.2,0.1l0,0l0,0l0,0c0,0-0.1,0,0,0c0,0,0,0,0,0
							C36.9,25.7,36.9,25.6,36.8,25.6c0.1,0,0.1,0.1,0.1,0.1l0.1,0l0,0L36.8,25.6C36.8,25.5,36.8,25.5,36.8,25.6z"/>
						<path class="st0" d="M34.7,24.9C34.7,25,34.7,25,34.7,24.9C34.7,25,34.7,24.9,34.7,24.9z"/>
						<path class="st0" d="M34.9,25c0,0,0.2,0.1,0.1,0.1c-0.1,0-0.2-0.1-0.3-0.2c0.1,0.1,0.2,0.2,0.4,0.3l0,0c0.2,0,0.6,0.3,0.7,0.3
							C35.5,25.4,35.3,25.2,34.9,25z"/>
						<path class="st0" d="M35.8,25.3l-0.1-0.2l-0.3-0.2l0.2,0.1C35.4,25,35.7,25.2,35.8,25.3z"/>
						<polygon class="st0" points="37.2,25.5 37.6,25.8 37.1,25.4 						"/>
						<polygon class="st0" points="37.2,25.4 37.6,25.6 37.4,25.5 						"/>
						<path class="st0" d="M38.1,16.5L38,16.4C38.1,16.5,38.1,16.5,38.1,16.5z"/>
						<path class="st0" d="M37.9,16.7l0.1,0.1C38,16.7,37.9,16.7,37.9,16.7z"/>
						<path class="st0" d="M39,22.9c0.3,0.2,0.8,0.5,0.4,0.2L39,22.9C39.1,23,39.1,22.9,39,22.9z"/>
						<path class="st0" d="M38.4,19.6l-0.1-0.1c0.1,0.1,0.2,0.2,0.3,0.3C38.5,19.7,38.5,19.7,38.4,19.6z"/>
						<path class="st0" d="M37.1,18.4l0.2,0.1C37.2,18.5,37.1,18.4,37.1,18.4z"/>
						<path class="st0" d="M38.7,15.3L38.4,15C38.3,15,38.5,15.1,38.7,15.3z"/>
						<path class="st0" d="M37.8,24.3c0.2,0.1,0.2,0.1,0.3,0.1C37.9,24.2,37.5,24,37.8,24.3z"/>
						<path class="st0" d="M41.4,19.8c0-0.1-0.1-0.1-0.2-0.2C41.2,19.6,41.3,19.7,41.4,19.8z"/>
						<path class="st0" d="M38.2,24.3C38.1,24.2,38.1,24.2,38.2,24.3C38.1,24.3,38.1,24.3,38.2,24.3C38.3,24.4,38.4,24.5,38.2,24.3z
							"/>
						<path class="st0" d="M42.3,12.5C42.4,12.5,42.4,12.6,42.3,12.5C42.3,12.5,42.3,12.5,42.3,12.5z"/>
						<path class="st0" d="M46,15.2C46,15.3,46,15.3,46,15.2C46,15.3,46,15.3,46,15.2z"/>
						<path class="st0" d="M37.7,25.1C37.7,25.1,37.7,25.1,37.7,25.1L37.7,25.1z"/>
						<path class="st0" d="M36.2,24.2c0,0-0.1-0.1-0.2-0.1C36.1,24.2,36.1,24.2,36.2,24.2z"/>
						<path class="st0" d="M36.1,22.5L36.1,22.5C36.1,22.4,36.1,22.4,36.1,22.5z"/>
						<path class="st0" d="M37.5,25c0,0,0.1,0,0.1,0C37.6,25.1,37.5,25,37.5,25z"/>
						<path class="st0" d="M37.7,25.1C37.6,25.1,37.6,25.1,37.7,25.1C37.7,25.2,37.7,25.2,37.7,25.1z"/>
						<path class="st0" d="M37.7,25.1C37.7,25.1,37.6,25.1,37.7,25.1C37.6,25.1,37.7,25.1,37.7,25.1C37.7,25.1,37.7,25.1,37.7,25.1z
							"/>
						<path class="st0" d="M41.2,15C41.2,15,41.3,15,41.2,15C41.2,14.8,41.2,14.9,41.2,15z"/>
						<path class="st0" d="M35.9,19.5C35.9,19.5,35.9,19.5,35.9,19.5C35.9,19.5,36,19.5,35.9,19.5L35.9,19.5z"/>
						<path class="st0" d="M35.7,19.2c0.4,0.4,0.3,0.4,0.2,0.3l1,0.8L35.7,19.2z"/>
						<path class="st0" d="M38.4,16l-0.3-0.2c-0.4-0.5-0.2-0.4-0.6-0.7c1,1-0.1,0.3,0.9,1.3l-0.2-0.2c0,0,0-0.1,0-0.1
							c-0.5-0.4,0.7,0.7,0.4,0.7c-0.1,0-0.3-0.2-0.4-0.3l0.2,0.3c0,0-0.2-0.2-0.2-0.2l0,0.2l0,0c0.1,0.2,0.3,0.4,0.4,0.5
							c-0.2-0.1-0.1-0.1-0.2-0.2l0.2,0.3c-0.3-0.2-0.5-0.5-0.4-0.5c-1-0.9,0.2,0.3-0.5-0.1l-0.1-0.2c-0.6-0.5-0.4-0.3-0.8-0.5
							c0.2,0.2,1,0.7,1.2,1c-0.1-0.1-0.1-0.1,0,0.2c-0.4-0.3-0.3-0.2-0.3-0.2l-0.5-0.4c0.1,0.2,0.3,0.4,0.5,0.6
							c-0.1,0-0.5-0.3-0.8-0.6c-0.2,0,0.6,0.5,0.6,0.7c-0.2-0.1-0.1,0.1,0.1,0.5c-0.2-0.1-0.3-0.3-0.4-0.4l0.3,0.4
							c0,0-0.1-0.1-0.2-0.2c0.1,0.2,0.5,0.4,0.5,0.6c0.5,0.5-0.9-0.6-0.3,0c-0.2-0.1-0.3-0.3-0.5-0.4c0.3,0.4,0.2,0.3,0.7,0.9
							l-0.4-0.2c0.4,0.3,0.8,0.7,1.1,1.1c0.2,0.1,0.4,0.3,0.4,0.3l0.2,0.3c-0.1-0.1-0.2-0.2-0.4-0.4c0,0,0.1,0.1,0.1,0.1
							c-0.2-0.1-0.5-0.4-0.7-0.6c0.1,0.1,0.2,0.2,0.3,0.2c-0.3-0.3-0.6-0.6-0.9-0.8c0.1,0.1,0.1,0.1,0.1,0.1
							c-0.1-0.1-0.1-0.1-0.2-0.2c-0.1,0,0,0.1,0.2,0.2l-0.6-0.4l0.2,0.2l-0.4-0.2c0.5,0.6,1.2,1.3,1.3,1.6c-0.4-0.4-0.6-0.6-1.1-1
							c0.5,0.4-0.1-0.3,0-0.3c-0.1,0-0.3-0.2-0.4-0.3l0.3,0.5c-0.4-0.3-0.3-0.2-0.5-0.3c0.8,0.6,0.4,0.5,0.6,0.8
							c-0.3-0.2-0.5-0.4-0.4-0.5c-0.6-0.4,0.8,0.8,0.3,0.5c0,0,0.1,0-0.1-0.1c0.2,0.2-0.1,0.2-0.3,0l0,0c-0.2,0-0.3,0.3,0.4,0.9
							c-0.1-0.1-0.8-0.7-0.9-0.8l2.1,2c-0.6-0.5-2-1.5-2.2-1.9c-0.1,0-0.2-0.1-0.1,0.1c0.1,0,0.9,0.6,0.9,0.7
							c-0.7-0.4-0.4-0.2-1-0.6c0.1,0.1,1,0.8,1,0.8c-0.1-0.1-0.9-0.7-1-0.8l0.8,0.8c-0.1-0.2-0.7-0.6-1-0.8c0.2,0.1-0.1,0.1,0,0.2
							l0.2,0.1c-0.2,0,1.2,1.1,1,1.2c-0.2-0.2-1.1-0.9-1.3-0.9c0.4,0.4,2.1,1.8,2.4,2.2l-0.3-0.2l0.2,0.3c-0.7-0.6-2-1.8-2.5-2.3
							c-0.2-0.1-0.3-0.2-0.3-0.1c-0.3-0.2-0.3-0.3-0.3-0.4l-0.3,0c0.5,0.4,0.4,0.5,0.9,0.9l-0.4-0.6c0.5,0.4,1.4,1.3,1.3,1.3
							c-0.2-0.1-0.9-0.7-1.1-0.9c0.2,0.2,0.3,0.4,0.1,0.3L35,20.5c-0.2-0.1,0.6,0.6,0.1,0.3c-0.1,0-0.7-0.4-0.4-0.2
							c0.6,0.4,2.5,1.8,3,2.2c0,0-0.7-0.3-1-0.5c-0.5-0.3-1.1-0.9-1.5-1.2c0.1,0.1,0.3,0.3,0.4,0.3c-0.1-0.1-0.4-0.4-0.4-0.2
							c0.5,0.4-0.1,0.1,0.4,0.4c0.1,0.2-0.2,0-0.2,0.1c0.4,0.2,1.2,0.9,1.3,1.1c-0.1-0.1-0.3-0.2-0.4-0.3c-0.1,0.1-0.4-0.1-0.5,0
							c-0.1-0.1-0.3-0.2-0.6-0.3c0.1,0.1,0.3,0.2,0.3,0.3c-0.5-0.3,0-0.1-0.6-0.5c0.3,0.2,0.4,0.4,0.6,0.6c0.5,0.3,0.2,0,0-0.2
							c0.7,0.5,1.4,1.1,1.6,1.4c0.1,0.2-0.5-0.3-0.4-0.2c-0.2,0.1,1.1,1,0.5,0.8c-0.5-0.3-0.9-0.6-1.2-0.8c-0.1-0.2,0.4,0.1,0.4,0
							l-0.2-0.1c-0.1-0.1-0.2-0.2-0.1-0.2c-0.4-0.2-0.3,0.2-0.7,0.1c0.1,0.1,0.3,0.3,0.5,0.4l0-0.1c0.4,0.2,0.4,0.4,0.6,0.5
							c0.2,0.2,0.6,0.5,0.3,0.5L36,24.2c0.1,0.1,0.3,0.2,0.2,0c0.2,0.2-0.8-0.4-0.1,0.1l0.4,0.2c0.2,0.2,0.7,0.6,0.5,0.6
							c0.5,0.3,0-0.1,0.6,0.3c-0.8-0.5,0.1-0.1-0.7-0.6c0.7,0.4,0.3,0.1,1,0.5c-0.2-0.1-0.3-0.2-0.2-0.2c0,0-0.1-0.1-0.1-0.1l0,0
							l0,0c0,0,0,0,0,0c-0.1,0-0.2-0.1-0.3-0.1c-0.4-0.3-0.3-0.4-0.5-0.5c0.1,0,0.2,0.1,0.4,0.2l-0.3-0.2c0.4,0.3,0.7,0.3,0.8,0.6
							l0.1-0.1c0.2,0.1,0.4,0.1,0.2,0c0.1,0-0.4-0.4-0.1-0.1l-0.2-0.3l0.1,0.1c0.1-0.1-0.5-0.6,0.3-0.3C38,24.1,37.9,24,38,24
							l0.3,0.2c-0.1-0.1,0.4,0.1,0.1-0.2c0.9,0.6,0.3-0.1,0.5,0l-0.4-0.3c0.1,0,0-0.2-0.1-0.4l-0.4-0.3c-0.3-0.3,0.4,0.1,0.4-0.1
							c0.1,0.1,0.1,0.1,0,0.1c0.9,0.5-0.4-0.7,0.2-0.3c-0.1-0.1-0.1-0.1,0-0.1c0,0,0,0,0,0c0,0,0,0,0,0c0.1,0,0.1,0.1,0.2,0.1
							c-0.1-0.1-0.2-0.1-0.2-0.1c0,0,0-0.1-0.1-0.2l0.4,0.3c0,0,0,0,0,0c0.2,0.1-0.2-0.2-0.5-0.4c-0.1-0.1-0.1-0.1-0.2-0.2
							c0.6,0.5-0.2-0.2,0.5,0.3c-0.3-0.3-0.1-0.3-0.8-0.9c0.1,0.1,0.1,0.1,0.1,0.1c0.1,0,0.2,0.1,0-0.1l0.5,0.4l-0.6-0.6
							c0.3,0.2,0.5,0.3,0.8,0.7c-0.5-0.5-0.2-0.2-0.6-0.8l0.3,0.3c0,0-0.4-0.4-0.1-0.2c0.6,0.4,0.3-0.2,1,0
							c-0.9-0.7,0.5,0.3-0.2-0.3c0.2,0.2,0.4,0.2,0.5,0.4c-0.1-0.3,0.4,0.2-0.1-0.4c0.2,0.2,0.3,0.3,0.4,0.4c0,0-0.2-0.2,0-0.1
							c0.1,0.1,0.2,0.2,0.2,0.3c0-0.1-0.6-0.7-1.2-1.2c0.3,0.2,0.3,0.2-0.1-0.2c0.2,0.2,0.4,0.3,0.5,0.4c0.1,0,0.4,0.1,0-0.3
							c0.1,0.1,0.1,0,0-0.1c0.1,0,0.1,0,0.1-0.1l-0.1-0.1c-0.6-0.5-0.1-0.2-0.1-0.3l0.1,0.1c0.5,0.3-0.2-0.2,0.4,0.1l-0.4-0.3
							c-0.8-0.7,0.5,0.3,0.3,0l-0.2-0.2c-0.2-0.3,1.1,0.9,1.2,0.9c0.1,0.1,0.1,0.1,0.1,0.2c0.5,0.3-0.4-0.4-0.5-0.6
							c0.3,0.2,0.6,0.6,0.7,0.6c0.2,0.2-0.7-0.9-0.1-0.5c-0.2-0.2-0.4-0.3-0.5-0.5c0-0.1,0.8,0.6,0.3-0.1c0.1,0,0.1,0.1,0.2,0.1
							c-0.1-0.2-0.1-0.4-0.4-0.7c1.2,1.1-0.3-0.8,0.7,0.3l0.1-0.2l0.1,0.1c0.1,0-0.1-0.3-0.3-0.6c0.1,0.1,0.2,0.2,0.2,0.2
							c0.3,0.1,0.3,0.1-0.2-0.6l0.4,0.3c-0.2-0.2,0.7,0.4,0.4-0.1c0,0,0.1,0.1,0.1,0.2c-0.3-0.5,1.2,0.7,0-0.6l-0.2-0.4
							c-0.2,0-0.5-0.6-0.8-0.8c0-0.1,0.5,0.3,0.5,0.4l-0.1-0.1c0.6,0.7,0.4,0.1,0.8,0.6c0.2-0.2,0.7,0,0.9-0.2L43,17.1l0.1,0
							c0.1,0.1,0.4,0.4,0.3,0.4c0.3,0.3-0.2-0.3-0.3-0.5c0.3,0.1,0.5,0.7,0.6,0.7l0-0.1l-0.1-0.1c-0.2-0.3-0.4-0.5-0.3-0.5
							c0.1,0.1,0.3,0.3,0.3,0.3c0,0,0.1,0.1,0,0l0.1,0l-0.4-0.4c-0.1-0.2,0.1,0-0.4-0.5c0.7,0.7,0.6,0,0.8,0.2
							c-0.2-0.4-0.2-0.4-0.1-0.4c-0.1-0.1-0.5-0.6-0.4-0.6c0.8,1,0.5,0.4,1.1,1.1c-0.4-0.5,0.1-0.3-0.6-0.9c0.1,0,0.3,0.4,0.6,0.6
							c-0.2-0.5,0.5,0.1,0.5-0.2c-0.1-0.1-0.3-0.3-0.4-0.6l0.6,0.6c0-0.1-0.6-0.8-0.2-0.4c-0.1-0.1-0.2-0.3-0.3-0.3
							c0.8,0.5,0.2-1,1.4,0.1C46,15.4,46,15.3,46,15.3c-0.1-0.1-0.3-0.3-0.4-0.5l0.5,0.4c-0.4-0.5,0.1-0.1-0.3-0.7l0,0.1
							c-0.4-0.6-1.1-1.3-1.6-2.1c0.4,0.7-0.9-0.9-0.3,0.2c-0.1-0.1-0.2-0.3-0.3-0.4c0.2,0.3,0.2,0.4,0.1,0.3l-0.1-0.1
							c-0.1,0.2-0.4-0.1-0.8-0.1l0.3,0.4c-0.1,0-0.2-0.1-0.3-0.2c0.4,0.6,0.1-0.1,0.6,0.6c-0.6-0.7-0.3,0.2-1-0.6
							c-0.1,0,0.4,0.4,0.3,0.5l-0.2-0.2l0.2,0.3c-0.1,0-0.3-0.3-0.5-0.5c0,0,0-0.1,0-0.1c-0.3-0.2-0.1,0.2-0.2,0.1l0.2,0.1
							c0,0.3-0.4,0.2-0.2,0.8l0.2,0.2c0.1,0.4-0.2-0.1-0.3,0.1l0,0c0.1,0.2,0.2,0.3,0.1,0.3c-0.1-0.2-0.4-0.3-0.5-0.6
							c0.2,0.4,0.2,0.3,0.6,1l-0.3-0.3c0.2,0.3,0.3,0.4,0.3,0.5c-0.2-0.3-0.4-0.4-0.6-0.8C41,13.6,42,14.9,41.1,14
							c0.6,0.8,0.5,0.3,0.6,0.5c0.2,0.2,0.5,0.6,0.3,0.6c-0.1,0-0.9-0.9-1-0.8c0,0,0-0.1,0-0.1c-0.2-0.2,0.2,0.3-0.2,0.1
							c0.4,0.5-0.1,0,0.4,0.6l0-0.2c0.1,0.2,0.6,0.9,0.3,0.7c-0.1-0.1-0.2-0.3-0.3-0.4c-0.2-0.2,0.1,0.2-0.1,0
							c-0.5-0.6,0-0.2-0.3-0.7c-0.3-0.2,0.3,0.5-0.3-0.1c0.7,0.9-0.2,0,0.3,0.7l-0.3-0.4c0,0.1,0.2,0.3,0.1,0.3l-0.4-0.5
							c0.3,0.4-0.4-0.2-0.3,0c0.1-0.1,0.4,0.4,0.7,0.6c0.3,0.6-0.9-0.8-0.9-0.5c0-0.1,0.3,0.1,0.4,0.3c-0.1,0-0.3-0.1-0.4-0.3
							c0,0.2,0.3,0.3,0.5,0.6c-0.4-0.4,0.1,0.2,0.2,0.4L40,15c-0.3-0.1,0.7,0.8,0.3,0.6L39.9,15l0.1,0.2l-0.4-0.4
							c0.2,0.4,0.1,0.3,0,0.2c0.2,0.2,0.6,0.6,0.6,0.7c-0.2-0.2-0.3-0.4-0.3-0.2c-0.2-0.2-0.4-0.5-0.1-0.2c-0.1-0.1-0.2-0.2-0.3-0.4
							c-0.3-0.2-0.2,0-0.2,0.1c0,0,0.1,0,0.1,0.1l0.4,0.6c-0.1-0.1-0.2-0.2-0.3-0.3c0,0.1,0.2,0.2,0.2,0.3c-0.3-0.3-0.5-0.6-0.6-0.8
							l0.2,0.4c-0.1-0.1-0.4-0.3-0.5-0.4c-0.2-0.1,0.4,0.7,0.1,0.5c0,0.1,0.1,0.1,0.1,0.2c-0.1,0-0.5-0.3-0.2,0.2l-0.5-0.5
							c0,0.2,0.7,0.6,0.8,0.9c0.1,0.2-0.5-0.4-0.6-0.5c0.2,0.3,0.7,0.9,0.2,0.5C38.3,16,38.4,16.1,38.4,16z M37.8,17.1
							c-0.1-0.1-0.3-0.3,0-0.1C38.2,17.3,38,17.1,37.8,17.1z M37.6,19.1c-0.1-0.1,0-0.1,0.1,0C37.7,19.1,37.7,19.1,37.6,19.1z
							 M37.5,24.6L37.5,24.6C37.7,24.7,37.6,24.7,37.5,24.6z M37.3,24.6c0.1,0,0.1,0.1,0.2,0.1c-0.1-0.1-0.1-0.1-0.1-0.1
							C37.3,24.6,37.2,24.5,37.3,24.6z M43.6,17.2L43.6,17.2C43.5,17,43.5,17.1,43.6,17.2z"/>
						<path class="st0" d="M37.2,18.5c0.1,0.1,0.1,0.1,0.2,0.2C37.4,18.6,37.3,18.6,37.2,18.5z"/>
						<polygon class="st0" points="38.7,15.4 38.7,15.4 38.7,15.3 						"/>
						<path class="st0" d="M34.8,21c0.1,0,0.1,0.1,0.2,0.1C35,21.1,34.9,21,34.8,21z"/>
						<path class="st0" d="M37.7,25.4l-0.1-0.1c0,0-0.1,0-0.2,0C37.6,25.3,37.7,25.4,37.7,25.4z"/>
						<path class="st0" d="M34.9,24.2C35,24.3,34.9,24.2,34.9,24.2l0.2,0.2C35.2,24.4,35,24.2,34.9,24.2z"/>
						<path class="st0" d="M36.3,24.6c-0.3-0.2-0.2-0.1-0.2,0c0,0,0,0,0,0C36.6,24.9,36.5,24.7,36.3,24.6z"/>
						<path class="st0" d="M36.1,24.6C36.1,24.6,36.1,24.6,36.1,24.6C36.3,24.7,36.2,24.6,36.1,24.6z"/>
						<path class="st0" d="M37.4,24.8c-0.1,0,0.4,0.3,0.3,0.2C38.1,25.4,37.3,24.6,37.4,24.8z"/>
						<polygon class="st0" points="35.2,23.9 35.6,24.1 35.3,23.9 						"/>
						<path class="st0" d="M35.7,23.8l-0.2,0C35.6,23.8,35.7,23.9,35.7,23.8C35.7,23.9,35.8,23.9,35.7,23.8z"/>
						<path class="st0" d="M35.7,23.9C35.7,23.9,35.7,23.9,35.7,23.9C35.7,24,35.7,23.9,35.7,23.9z"/>
						<polygon class="st0" points="35.1,23.7 35.2,23.8 35.3,23.7 						"/>
						<path class="st0" d="M36.2,23.3l-0.1-0.1C36,23,35.9,23,35.9,23C36,23.1,36.1,23.2,36.2,23.3z"/>
						<path class="st0" d="M34.9,22.7c0.1,0,0.2,0.1,0.3,0.2l-0.5-0.4L34.9,22.7z"/>
						<path class="st0" d="M35,22.4c-0.1-0.1-0.3-0.4-0.4-0.3C34.7,22.2,34.8,22.4,35,22.4z"/>
						<polygon class="st0" points="36.3,21.9 36.3,22 37.1,22.6 						"/>
						<path class="st0" d="M35,19.6c-0.3-0.1,0.5,0.4,0.2,0.3c0.2,0.2,0.2,0.1,0.4,0.2C35.4,20,35.5,20,35,19.6z"/>
						<path class="st0" d="M35.5,20.2c0,0,0.1,0.1,0.1,0.1C35.6,20.2,35.6,20.2,35.5,20.2z"/>
						<polygon class="st0" points="46.5,15.6 46.7,15.7 46.4,15.4 						"/>
						<path class="st0" d="M46.1,14.9l0.4,0.5L46.1,14.9C46.2,14.9,46.2,15,46.1,14.9z"/>
						<path class="st0" d="M36.8,16.3l0.1,0.1c0.1,0.1,0.1,0.1,0.2,0.1L36.8,16.3z"/>
						<polygon class="st0" points="37.7,16 37.7,16 38.1,16.4 						"/>
						<path class="st0" d="M37.7,15c0,0,0,0.1,0,0.1C37.6,15,38.2,15.5,37.7,15z"/>
					</g>
				</g>
			</g>
		</g>
	</g>
	<g>
		<g>
			<g>
				<g>
					<g>
						<path class="st0" d="M44.6,51.5c-0.1,0.1,0.3,0.2,0.4,0.2C44.9,51.6,44.5,51.4,44.6,51.5z"/>
						<polygon class="st0" points="44.3,49.9 44.4,50 44.1,49.7 						"/>
						<path class="st0" d="M44.8,48.9c-0.7-0.2-0.1,0.4-0.4,0.5l-0.2,0l0.5,0.3C44.7,49.4,44.5,48.9,44.8,48.9z"/>
						<path class="st0" d="M46.5,49.1c-0.3-0.1-0.1-0.2-0.1,0.1C46.4,49.1,46.4,49.1,46.5,49.1C46.4,49.1,46.4,49.1,46.5,49.1z"/>
						<path class="st0" d="M46.4,49.1C46.4,49.3,46.6,49.2,46.4,49.1L46.4,49.1z"/>
						<path class="st0" d="M46.5,48.6l0.1,0.3c0.2,0.1,0.3-0.1,0.3,0C47,48.7,46.8,48.6,46.5,48.6z"/>
						<path class="st0" d="M46.2,48.2l0,0.1C46.3,48.3,46.3,48.3,46.2,48.2z"/>
						<path class="st0" d="M46.3,48.6l-0.1-0.3c-0.1,0-0.3-0.1,0,0.1C46.1,48.3,46.2,48.4,46.3,48.6z"/>
						<path class="st0" d="M46.2,48.6c-0.2,0-0.3,0.1-0.5-0.2C45.6,48.7,46.1,48.9,46.2,48.6z"/>
						<path class="st0" d="M44.2,48.5l-0.2,0l0.2,0.2C44,48.6,44.4,48.6,44.2,48.5z"/>
						<path class="st0" d="M47.4,47.9c-0.1-0.1-0.4-0.2-0.5-0.2l0.1,0.2C47,47.8,47.2,47.8,47.4,47.9z"/>
						<path class="st0" d="M46.8,47.6l-0.1-0.3C46.6,47.5,46.7,47.6,46.8,47.6z"/>
						<polygon class="st0" points="45.5,47.8 45.8,48.3 45.5,47.7 						"/>
						<polygon class="st0" points="47.7,47.3 48,47.6 47.6,47.2 						"/>
						<path class="st0" d="M47.9,46.9c0.2,0.2,0.5,0.2,0.6,0.3c0-0.1-0.1-0.4-0.3-0.6C48.3,46.8,48.2,46.9,47.9,46.9z"/>
						<path class="st0" d="M48,46.4c0,0.1,0.1,0.2,0.2,0.3C48.2,46.6,48.1,46.5,48,46.4z"/>
						<path class="st0" d="M46.9,47.1c0.1,0,0.3,0.1,0.4,0.1L46.9,47.1L46.9,47.1z"/>
						<path class="st0" d="M46.9,47.1L46.9,47.1C47,47,47,47,47,47C47,47,47,47,46.9,47.1z"/>
						<path class="st0" d="M46.9,47.1L46.9,47.1C46.9,47.1,46.8,47.1,46.9,47.1z"/>
						<path class="st0" d="M46.1,47.5c-0.2-0.2-0.3-0.5-0.7-0.5C45.6,47.2,45.8,47.2,46.1,47.5z"/>
						<path class="st0" d="M46.4,46.9l-0.2,0.1c0.1,0.1,0.3,0.1,0.3,0.2L46.4,46.9z"/>
						<polygon class="st0" points="46.3,46.8 46.4,46.9 46.5,46.9 						"/>
						<path class="st0" d="M47.5,46.4c-0.1-0.2-0.1-0.3,0-0.4c-0.1,0-0.2,0.1-0.3,0.2C47.3,46.4,47.5,46.6,47.5,46.4z"/>
						<path class="st0" d="M47.2,46.7L47.2,46.7C47.2,46.7,47.1,46.7,47.2,46.7z"/>
						<path class="st0" d="M48,45.2C48,45.2,48,45.2,48,45.2L48,45.2L48,45.2z"/>
						<path class="st0" d="M47.1,46.3c-0.1,0-0.1,0.1,0,0.2C47.1,46.4,47.2,46.4,47.1,46.3C47.1,46.3,47.1,46.2,47.1,46.3z"/>
						<path class="st0" d="M48,46c-0.1,0-0.2,0-0.3,0C47.9,46.1,48.1,46.1,48,46z"/>
						<path class="st0" d="M47.3,46.7L47.3,46.7C47.4,46.8,47.4,46.8,47.3,46.7z"/>
						<path class="st0" d="M47.3,46.7c0-0.1-0.1-0.2-0.2-0.2c0,0.1,0,0.1,0,0.2C47.2,46.7,47.3,46.7,47.3,46.7z"/>
						<path class="st0" d="M45.9,43.4c0.3,0.2,0.5,0.6,0,0.6c0.1,0.3,1.3,0.9,2,1.2c-0.1-0.1-0.3-0.2-0.4-0.5
							c-0.2-0.1-0.7,0.1-0.9-0.3c0-0.3,0.2-0.1,0.5-0.1c-0.5-0.2-0.4-0.7-1-1l0.1,0.3C46.2,43.6,46.1,43.4,45.9,43.4z"/>
						<path class="st0" d="M47.7,45.5L47.7,45.5c0.1,0.1,0.3,0.1,0.6,0.2c-0.1-0.2-0.2-0.3-0.3-0.4C47.9,45.3,47.8,45.4,47.7,45.5
							L47.7,45.5z"/>
						<path class="st0" d="M47.5,45.9c-0.3-0.3-0.4-0.5-0.8-0.7c-0.1,0.2,0.2,0.3,0.3,0.6C47.1,45.4,47.1,45.9,47.5,45.9
							c0,0.1,0,0.1-0.1,0.2c0.1,0,0.2,0,0.3-0.1l0,0l0,0l0,0c-0.1,0-0.1,0,0,0c0,0,0,0,0,0C47.6,45.9,47.6,45.9,47.5,45.9
							c0.1,0,0.1,0,0.1,0.1l0.1,0l0,0l0-0.4C47.6,45.6,47.6,45.7,47.5,45.9z"/>
						<path class="st0" d="M44.7,46.4C44.7,46.4,44.7,46.4,44.7,46.4C44.7,46.3,44.7,46.3,44.7,46.4z"/>
						<path class="st0" d="M45,46.3c0,0.1,0.2,0.2,0.1,0.2c-0.2,0-0.2-0.1-0.3-0.2c0.1,0.1,0.2,0.3,0.4,0.3l0-0.1
							c0.2-0.1,0.8,0.1,0.8,0.1C45.6,46.6,45.4,46.5,45,46.3z"/>
						<path class="st0" d="M46.2,46l0-0.4l-0.4-0.1l0.2,0.1C45.8,45.8,46,45.9,46.2,46z"/>
						<polygon class="st0" points="48.2,45.3 48.6,45.6 48.1,45.1 						"/>
						<polygon class="st0" points="48.4,45 48.7,45.2 48.6,45 						"/>
						<path class="st0" d="M61.5,24.8l0-0.1C61.5,24.7,61.5,24.7,61.5,24.8z"/>
						<path class="st0" d="M61,25.2l0.1,0.2C61,25.3,61,25.2,61,25.2z"/>
						<path class="st0" d="M54.7,37.3c0.4,0.2,0.9,0.5,0.5,0.2l-0.3-0.3C54.9,37.3,54.8,37.3,54.7,37.3z"/>
						<path class="st0" d="M58,30.6l-0.1-0.1c0.1,0.1,0.1,0.3,0.2,0.4C58.1,30.8,58,30.7,58,30.6z"/>
						<path class="st0" d="M56.9,29.2l0.3,0.1C57.1,29.2,57,29.2,56.9,29.2z"/>
						<path class="st0" d="M64.3,22.1l-0.2-0.4C64,21.8,64.2,21.9,64.3,22.1z"/>
						<path class="st0" d="M50.7,41.6c0.2,0,0.3,0,0.4-0.1C50.8,41.4,50.5,41.3,50.7,41.6z"/>
						<path class="st0" d="M64.1,28.6c0-0.1,0-0.2-0.1-0.3C64,28.4,64.1,28.5,64.1,28.6z"/>
						<path class="st0" d="M51.3,41.2c0,0-0.1,0-0.1,0c0,0.1,0,0.2-0.1,0.3C51.3,41.5,51.5,41.5,51.3,41.2z"/>
						<path class="st0" d="M76.6,14.9C76.6,14.9,76.6,14.9,76.6,14.9C76.6,14.9,76.6,14.9,76.6,14.9z"/>
						<path class="st0" d="M81.8,17.8c0,0-0.1,0-0.1,0.1C81.7,17.9,81.7,17.9,81.8,17.8z"/>
						<path class="st0" d="M49.5,43.8C49.5,43.8,49.5,43.8,49.5,43.8L49.5,43.8z"/>
						<path class="st0" d="M47.9,43.1c0,0-0.1-0.1-0.2-0.2C47.8,43,47.8,43.1,47.9,43.1z"/>
						<path class="st0" d="M49.8,38.8L49.8,38.8C49.8,38.8,49.8,38.8,49.8,38.8z"/>
						<path class="st0" d="M49.3,43.7c0.1,0,0.1,0,0.2,0C49.4,43.7,49.3,43.7,49.3,43.7z"/>
						<path class="st0" d="M49.4,43.9C49.4,43.9,49.4,43.9,49.4,43.9C49.4,43.9,49.5,44,49.4,43.9z"/>
						<path class="st0" d="M49.5,43.6c0,0-0.1,0.1-0.1,0.1c0,0,0.1,0,0.1,0C49.5,43.7,49.5,43.7,49.5,43.6z"/>
						<path class="st0" d="M70.5,19.7C70.5,19.7,70.5,19.7,70.5,19.7C70.5,19.5,70.5,19.5,70.5,19.7z"/>
						<polygon class="st0" points="53.2,32.5 53.2,32.5 53.2,32.5 						"/>
						<path class="st0" d="M53.2,32c0.3,0.5,0.2,0.5,0,0.5l0.9,0.8L53.2,32z"/>
						<path class="st0" d="M62.8,23.7l-0.4-0.2c-0.2-0.7,0.1-0.6-0.4-0.9c0.8,1.1-0.6,0.7,0.2,1.8l-0.3-0.1c0,0,0-0.1,0-0.1
							c-0.6-0.3,0.4,0.9,0,1c-0.2,0-0.4-0.1-0.4-0.3l0,0.4c-0.1,0-0.2-0.2-0.1-0.2l-0.3,0.4l0,0c0.1,0.2,0.2,0.6,0.2,0.7
							c-0.2-0.1,0-0.1-0.2-0.3l0,0.4c-0.3-0.2-0.3-0.6-0.2-0.7c-1-0.9,0,0.4-0.8,0.1l0.1-0.3c-0.6-0.5-0.6-0.2-1.1-0.4
							c0.2,0.2,1.2,0.6,1.2,1c-0.1,0-0.2,0-0.2,0.3c-0.3-0.4-0.3-0.2-0.5-0.1l-0.4-0.5c0,0.3,0.2,0.5,0.3,0.8
							c-0.2,0.1-0.6-0.3-0.9-0.6c-0.3,0.1,0.7,0.5,0.4,0.8c-0.4,0-0.4,0.3-0.4,0.8c-0.3,0-0.2-0.3-0.4-0.4l0.2,0.5
							c0,0-0.1-0.1-0.2-0.2c0,0.2,0.4,0.5,0.3,0.8c0.4,0.6-1-0.5-0.7,0.3c-0.2-0.1-0.2-0.3-0.4-0.5c0,0.7,0,0.5,0.2,1.3l-0.5-0.1
							c0.5,0.2,0.6,0.8,0.8,1.3c0.2,0.1,0.4,0.2,0.5,0.3l0,0.5c-0.1-0.1-0.2-0.2-0.3-0.5c0,0.1,0,0.1,0.1,0.2
							c-0.3-0.1-0.4-0.4-0.6-0.7c0.1,0.1,0.2,0.1,0.4,0.2c-0.2-0.4-0.4-0.7-0.7-1c0,0.1,0,0.1,0,0.2c-0.1-0.1-0.1-0.2-0.2-0.2
							c-0.1,0,0,0.1,0.1,0.3l-0.5-0.5l0.2,0.2l-0.7,0c0.2,0.8,0.7,1.8,0.5,2.3c-0.3-0.5-0.6-0.7-1-1.1c0.5,0.4,0.1-0.5,0.4-0.6
							c-0.2,0-0.3-0.2-0.4-0.3l0,0.8c-0.3-0.4-0.3-0.2-0.6-0.3c0.7,0.7,0.2,0.7,0.2,1.1c-0.2-0.2-0.4-0.5-0.2-0.6
							c-0.7-0.4,0.5,1.1-0.1,0.8c0,0,0.1,0,0-0.2c0.1,0.3-0.3,0.4-0.5,0.1l0,0c-0.4,0.2-0.9,0.8-0.4,1.5c-0.1-0.1-0.7-0.8-0.8-0.9
							l1.5,2.6c-0.5-0.6-1.9-1.6-1.9-2.2c-0.1,0-0.3,0-0.3,0.3c0.1,0,0.9,0.6,0.8,0.8c-0.7-0.4-0.4-0.2-1.1-0.5c0.2,0,0.9,0.9,0.8,1
							c-0.1-0.1-0.8-0.8-0.8-0.9l0.5,1.1c-0.1-0.2-0.7-0.7-0.9-0.8c0.2,0.1-0.3,0.2-0.2,0.4l0.3,0.1c-0.4,0.2,0.8,1.4,0.5,1.7
							c-0.1-0.2-0.9-1.1-1.2-1c0.3,0.5,1.7,2.2,1.8,2.8l-0.3-0.2l0.1,0.5c-0.5-0.7-1.5-2.3-1.8-3c-0.3-0.1-0.3-0.2-0.5,0
							c-0.3-0.1-0.2-0.4-0.2-0.5L50,34.3c0.5,0.4,0.2,0.8,0.6,1.2l-0.1-0.9c0.5,0.4,1.1,1.6,0.8,1.8c-0.3-0.1-0.8-0.9-1-1
							c0.1,0.2,0.1,0.6-0.1,0.5l-0.1-0.4c-0.3,0,0.4,0.9-0.2,0.6c-0.1,0-0.8-0.4-0.5-0.1c0.7,0.4,2.5,2,2.8,2.4
							c-0.1,0-0.9-0.1-1.2-0.3c-0.6-0.3-0.9-1.1-1.4-1.4c0.1,0.1,0.2,0.3,0.3,0.4c-0.2,0-0.4-0.4-0.5-0.2c0.5,0.5-0.3,0.3,0.4,0.5
							c0,0.3-0.2,0.1-0.4,0.3c0.4,0.2,1,1.1,1,1.4c-0.1-0.1-0.3-0.2-0.4-0.3c-0.3,0.3-0.7,0.3-1,0.6c-0.2-0.1-0.4-0.1-0.6-0.3
							c0.1,0.1,0.2,0.3,0.1,0.4c-0.6-0.2,0.1-0.3-0.6-0.6c0.3,0.3,0.2,0.6,0.3,0.9c0.5,0.3,0.3-0.2,0.3-0.5c0.7,0.5,1.1,1.3,1.2,1.9
							c0,0.4-0.5-0.2-0.5-0.1c-0.5,0.4,0.9,1.3,0.1,1.3c-0.5-0.2-0.9-0.6-1.2-0.8c0-0.3,0.5-0.1,0.6-0.3l-0.3,0
							c-0.1-0.2-0.1-0.4,0.1-0.4c-0.5-0.2-0.7,0.8-1.3,0.9c0.1,0.2,0.2,0.4,0.4,0.5l0-0.2c0.4,0.1,0.3,0.6,0.6,0.5
							c0.1,0.3,0.4,0.8,0,0.9l-0.5-0.3c0.1,0.1,0.4,0.1,0.3-0.1c0.2,0.3-0.9-0.1-0.3,0.4l0.5,0.1c0.1,0.3,0.5,0.9,0.2,1
							c0.6,0.3,0-0.1,0.7,0.2c-0.8-0.4,0.4-0.5-0.5-0.8c0.8,0.3,0.5,0,1.2,0.2c-0.2-0.1-0.4-0.2-0.2-0.3c0,0-0.1-0.1-0.1-0.1l0,0
							l0,0c0,0,0,0,0,0c-0.1,0-0.2,0-0.3-0.1c-0.3-0.4-0.1-0.6-0.2-0.8c0.2,0,0.2,0.2,0.4,0.3l-0.2-0.3c0.4,0.3,0.8,0.2,0.8,0.6
							l0.2-0.2c0.3,0,0.5-0.1,0.4-0.3c0.1,0-0.2-0.5,0-0.2l0-0.5l0.1,0.1c0.3-0.3-0.1-1.1,0.8-0.9c0-0.2,0-0.4,0.2-0.5l0.3,0.2
							c0-0.2,0.6-0.1,0.4-0.5c0.9,0.5,0.7-0.5,1-0.6l-0.4-0.3c0.2-0.1,0.2-0.4,0.2-0.7l-0.3-0.3c-0.1-0.4,0.6-0.2,0.8-0.5
							c0.1,0.1,0,0.2-0.1,0.1c1,0.4,0.1-1.2,0.9-0.9c-0.1-0.2,0-0.2,0.2-0.2c0,0,0,0,0,0c0,0,0,0,0,0c0.1,0,0.2,0.1,0.3,0.1
							c-0.1,0-0.2-0.1-0.2-0.1c0-0.1,0.1-0.2,0.1-0.3l0.4,0.3c0,0,0,0,0,0c0.2,0-0.1-0.2-0.4-0.4c0-0.1-0.1-0.2-0.1-0.3
							c0.6,0.5,0-0.4,0.7,0.1c-0.2-0.3,0.2-0.6-0.4-1.2c0.1,0.1,0.1,0.1,0.1,0.1c0.2,0,0.3,0,0.2-0.3l0.5,0.4l-0.4-0.8
							c0.4,0.2,0.6,0.3,0.8,0.7c-0.2-0.8,0-0.4-0.2-1.2l0.3,0.3c0.1-0.1-0.2-0.6,0.1-0.4c0.7,0.4,1-0.8,2-0.8
							c-0.9-0.8,0.6,0.2,0-0.5c0.2,0.2,0.4,0.2,0.5,0.5c0.1-0.4,0.7,0,0.3-0.7c0.2,0.2,0.2,0.4,0.3,0.5c0-0.1-0.1-0.3,0.1-0.2
							c0.1,0.1,0.1,0.2,0.2,0.3c0.2-0.3-0.3-0.9-0.8-1.5c0.4,0.2,0.4,0.1,0.2-0.4c0.2,0.2,0.5,0.3,0.4,0.5c0.1-0.1,0.8-0.2,0.4-0.7
							c0.1,0.1,0.2-0.1,0.1-0.2c0.2-0.2,0.3-0.1,0.5-0.4l-0.1,0c-0.4-0.7,0.1-0.3,0.2-0.5l0,0.1c0.7,0.1,0-0.3,0.8-0.2l-0.3-0.4
							c-0.6-0.8,0.7,0.2,0.7-0.3l-0.3-0.1c-0.1-0.4,1.2,0.8,1.4,0.8c0.1,0,0,0.1,0.1,0.2c0.7,0.2-0.4-0.5-0.2-0.8
							c0.3,0.2,0.5,0.7,0.7,0.6c0.3,0.2-0.2-1.2,0.4-0.9c-0.2-0.2-0.4-0.3-0.4-0.6c0.1-0.2,1.1,0.4,0.7-0.4c0.1,0,0.1,0.1,0.2,0.1
							c0-0.3,0.2-0.6,0-1c1.1,1.2,0.4-1.3,1.3-0.1l0.4-0.4l0.1,0.1c0.3-0.1,0.2-0.5,0.1-0.8c0.1,0,0.2,0.2,0.2,0.3
							c0.6,0,0.6-0.1,0.5-1l0.3,0.4c-0.1-0.3,1,0.2,1.1-0.5c0,0,0.1,0.1,0.1,0.2c0.1-0.8,1.8,0.4,1-1.2l0-0.6
							c-0.5,0.2-0.4-0.7-0.7-0.8c0.1-0.2,0.7,0.2,0.6,0.4l-0.1-0.1c0.5,0.8,0.7-0.1,1,0.5c0.7-0.6,1.7-0.6,2.4-1.1l-0.5-0.6l0.3-0.1
							c0.2,0.1,0.4,0.4,0.2,0.5c0.3,0.3,0.1-0.5,0-0.6c0.5,0,0.3,0.8,0.5,0.7l0.1-0.1l-0.1-0.1c-0.1-0.3-0.2-0.6,0-0.7
							c0.2,0,0.3,0.3,0.4,0.3c0,0,0.1,0.1,0.1,0l0.3-0.1l-0.4-0.4c0-0.3,0.3-0.2-0.2-0.6c0.8,0.7,1.3-0.4,1.6-0.2
							c0-0.5,0.2-0.6,0.4-0.7c-0.1-0.1-0.5-0.6-0.2-0.7c0.6,1.2,0.7,0.3,1.3,1c-0.5-0.5,0.5-0.5-0.1-1.1c0.2,0,0.2,0.4,0.5,0.6
							c0.2-0.7,1.1-0.2,1.5-0.5c-0.1-0.2-0.3-0.4-0.3-0.7l0.6,0.7c0.1-0.1-0.3-1,0.1-0.5c-0.1-0.1-0.2-0.3-0.2-0.4
							c0.7,0.2,1.1-0.2,1.6-0.4c0.5-0.3,1.1-0.4,1.8,0.3c-0.2-0.3-0.1-0.4,0-0.4c-0.1-0.1-0.1-0.4-0.2-0.7c0.2,0.2,0.4,0.4,0.6,0.5
							c0-0.7,0.5-0.1,0.4-0.8l-0.1,0.1c0.1-0.8-0.6-1.6-0.7-2.5c-0.1,0.9-0.9-1.1-1.1,0.2c-0.1-0.2,0-0.3-0.1-0.5
							c0,0.4-0.1,0.5-0.4,0.4l0-0.1c-0.6,0.3-1,0-1.8,0l0.2,0.4c-0.2,0-0.3-0.1-0.4-0.2c0.1,0.7,0.4-0.1,0.5,0.7
							c-0.5-0.8-1.1,0.4-1.6-0.6c-0.2,0.1,0.3,0.5,0,0.6l-0.2-0.2l0.1,0.4c-0.2,0-0.4-0.3-0.5-0.5c0,0,0.1-0.1,0.1-0.1
							c-0.3-0.2-0.5,0.3-0.6,0.3l0.3,0.1c-0.5,0.5-1.4,0.5-1.7,1.4l0.1,0.2c-0.2,0.6-0.5,0-0.8,0.4l0-0.1c0,0.2-0.1,0.4-0.2,0.5
							c0-0.3-0.5-0.3-0.5-0.7c-0.2,0.6-0.1,0.4,0.1,1.3L73,18c0.1,0.3,0.2,0.5,0,0.7c0-0.4-0.4-0.4-0.4-0.9
							c-0.9-0.4-0.3,1.1-1.1,0.3c0.3,1,0.7,0.2,0.7,0.5c0.3,0.2,0.2,0.8,0,0.8c-0.2,0.1-1-0.9-1.3-0.7c0,0,0-0.1,0-0.1
							c-0.3-0.1-0.1,0.5-0.5,0.2c0.2,0.6-0.2,0.1,0.2,0.8l0.2-0.4c-0.1,0.3,0.3,1.2-0.3,1c-0.1-0.1-0.1-0.4-0.1-0.5
							c-0.2-0.1-0.1,0.2-0.3,0.1c-0.4-0.7,0.3-0.4,0.2-1.1c-0.3-0.2-0.1,0.7-0.4,0c0.5,1-0.4,0.1-0.2,1l-0.3-0.4c0,0.1,0,0.3,0,0.4
							L69.2,19c0.1,0.6-0.6-0.1-0.7,0.2c0.4-0.3,0.4,0.4,0.8,0.6c-0.1,0.9-1-0.8-1.4-0.3c0-0.1,0.4,0,0.4,0.3
							c-0.2,0-0.4-0.1-0.6-0.2c-0.3,0.3,0.3,0.4,0.3,0.7c-0.5-0.4,0,0.3-0.1,0.6l-0.3-0.4c-0.6,0,0.5,0.9-0.1,0.9l-0.2-0.7L67.3,21
							L67,20.5c0,0.5-0.1,0.4-0.4,0.5c0.2,0.2,0.5,0.7,0.3,0.9c-0.3-0.1-0.2-0.4-0.4-0.2c-0.1-0.3-0.3-0.6,0.1-0.4
							c-0.1-0.1-0.1-0.3-0.2-0.4c-0.3-0.2-0.4,0.2-0.5,0.2c0,0,0.1,0,0.2,0l0,0.8c-0.2-0.1-0.2-0.3-0.2-0.4c0,0.1,0,0.3-0.1,0.4
							c-0.2-0.3-0.4-0.7-0.4-0.9l-0.1,0.6c-0.1-0.1-0.5-0.2-0.5-0.4c-0.3,0,0,1-0.5,0.9c0,0.1,0,0.1,0,0.2c-0.3,0.1-0.8-0.1-0.8,0.5
							l-0.6-0.4c-0.1,0.3,0.7,0.5,0.5,1c-0.1,0.4-0.5-0.4-0.7-0.5c0.1,0.4,0.3,1.1-0.3,0.9C62.6,23.7,62.8,23.8,62.8,23.7z M60.3,26
							c0-0.1-0.1-0.4,0.1-0.3C60.7,26.2,60.5,26.1,60.3,26z M57,30.2c-0.1-0.2,0-0.1,0.2-0.1C57.2,30.3,57.2,30.3,57,30.2z
							 M49.7,42.8L49.7,42.8C50,42.8,49.9,42.8,49.7,42.8z M49.4,42.9c0,0.1,0.1,0.1,0.2,0.1c-0.1-0.1-0.1-0.1,0-0.2
							C49.5,42.8,49.4,42.7,49.4,42.9z M73,21.8l-0.1-0.1C73,21.6,73,21.7,73,21.8z"/>
						<path class="st0" d="M57,29.4c0.1,0,0.1,0.1,0.2,0.2C57.2,29.5,57.1,29.4,57,29.4z"/>
						<path class="st0" d="M64.4,22.2C64.4,22.2,64.4,22.2,64.4,22.2C64.4,22.2,64.3,22.1,64.4,22.2L64.4,22.2z"/>
						<path class="st0" d="M49.2,36.7c0.1,0,0.2,0,0.3,0.1C49.4,36.7,49.3,36.6,49.2,36.7z"/>
						<path class="st0" d="M49.2,44.6l0-0.2c0,0.1-0.1,0.1-0.2,0C49,44.5,49.2,44.6,49.2,44.6z"/>
						<path class="st0" d="M45.8,44.3c0,0.1,0,0.1,0,0.1l0.2,0.1C46,44.4,45.9,44.2,45.8,44.3z"/>
						<path class="st0" d="M47.8,43.8c-0.3-0.2-0.3,0-0.3,0.1c0,0,0,0,0,0C47.9,44.3,47.8,44,47.8,43.8z"/>
						<path class="st0" d="M47.4,44c0,0,0,0.1-0.1,0.1C47.6,44.2,47.4,44.1,47.4,44z"/>
						<path class="st0" d="M49.4,43.3c-0.1,0,0.4,0.3,0.2,0.3C50,44,49.4,42.9,49.4,43.3z"/>
						<polygon class="st0" points="46.6,43.1 47,43.4 46.7,43.1 						"/>
						<path class="st0" d="M47.5,42.5l-0.2,0.1c0.1,0,0.1,0.1,0.1,0.1C47.5,42.6,47.6,42.6,47.5,42.5z"/>
						<path class="st0" d="M47.4,42.7c0,0.1-0.1,0.1,0,0.2C47.4,42.9,47.4,42.8,47.4,42.7z"/>
						<polygon class="st0" points="46.6,42.8 46.8,42.8 46.9,42.7 						"/>
						<path class="st0" d="M49,40.7l0-0.3c-0.1-0.1-0.2-0.1-0.2,0C48.8,40.5,48.8,40.6,49,40.7z"/>
						<path class="st0" d="M47.5,40.4c0.1,0,0.2,0.1,0.4,0.1l-0.5-0.4L47.5,40.4z"/>
						<path class="st0" d="M47.8,39.8c-0.1-0.1-0.2-0.6-0.3-0.3C47.6,39.6,47.5,39.9,47.8,39.8z"/>
						<polygon class="st0" points="50.7,37.5 50.7,37.6 51.4,38.2 						"/>
						<path class="st0" d="M51.1,33.5c-0.4,0,0.4,0.5,0,0.5c0.1,0.2,0.3,0,0.4,0.2C51.5,33.9,51.7,33.9,51.1,33.5z"/>
						<path class="st0" d="M51.6,34.2c0,0,0,0.1,0,0.2C51.6,34.3,51.6,34.2,51.6,34.2z"/>
						<polygon class="st0" points="82.4,18.2 82.6,18.4 82.5,18.1 						"/>
						<path class="st0" d="M82.6,17.4l0.1,0.6l0-0.6C82.7,17.5,82.7,17.6,82.6,17.4z"/>
						<path class="st0" d="M59.1,25.3l0.1,0.1c0.1,0.1,0.2,0.1,0.3,0.1L59.1,25.3z"/>
						<polygon class="st0" points="61.3,24.1 61.3,24.2 61.7,24.6 						"/>
						<path class="st0" d="M62.6,22.3c-0.1,0-0.1,0.2-0.2,0.2C62.5,22.3,63,22.9,62.6,22.3z"/>
					</g>
				</g>
			</g>
		</g>
	</g>
	<g>
		<g>
			<g>
				<g>
					<g>
						<path class="st0" d="M87.4,42.5c0,0,0.4,0,0.5,0C87.7,42.4,87.3,42.5,87.4,42.5z"/>
						<polygon class="st0" points="86.4,42.2 86.6,42.2 86.1,42.2 						"/>
						<path class="st0" d="M86.4,41.9c-0.7,0.1,0.1,0.1-0.1,0.2l-0.2,0l0.6,0C86.6,42,86.2,42,86.4,41.9z"/>
						<path class="st0" d="M87.9,41.7C87.6,41.7,87.7,41.6,87.9,41.7C87.9,41.7,87.9,41.7,87.9,41.7C87.9,41.7,87.9,41.7,87.9,41.7z
							"/>
						<path class="st0" d="M87.9,41.7C87.9,41.7,88.1,41.7,87.9,41.7L87.9,41.7z"/>
						<path class="st0" d="M87.7,41.6l0.2,0c0.2,0,0.2,0,0.3,0C88.2,41.5,88,41.5,87.7,41.6z"/>
						<path class="st0" d="M87.2,41.5l0.1,0C87.4,41.5,87.4,41.5,87.2,41.5z"/>
						<path class="st0" d="M87.5,41.6l-0.2,0c-0.1,0-0.3,0,0.1,0C87.2,41.6,87.4,41.6,87.5,41.6z"/>
						<path class="st0" d="M87.4,41.6c-0.2,0-0.3,0.1-0.5,0C87,41.7,87.5,41.7,87.4,41.6z"/>
						<path class="st0" d="M85.6,41.9l-0.2,0L85.6,41.9C85.6,42,85.9,41.9,85.6,41.9z"/>
						<path class="st0" d="M88.1,41.3c-0.2,0-0.4,0-0.6,0l0.2,0C87.8,41.3,87.9,41.3,88.1,41.3z"/>
						<path class="st0" d="M87.5,41.3l-0.3,0C87.2,41.3,87.3,41.3,87.5,41.3z"/>
						<polygon class="st0" points="86.4,41.5 87,41.6 86.4,41.5 						"/>
						<polygon class="st0" points="88.1,41.1 88.5,41.2 87.9,41.1 						"/>
						<path class="st0" d="M88.1,41c0.3,0,0.5,0,0.7,0c-0.1,0-0.3-0.1-0.5-0.1C88.3,41,88.3,41,88.1,41z"/>
						<path class="st0" d="M87.9,40.9c0.1,0,0.2,0,0.3,0.1C88.2,40.9,88.1,40.9,87.9,40.9z"/>
						<path class="st0" d="M87.3,41.2c0.1,0,0.3,0,0.4,0L87.3,41.2L87.3,41.2z"/>
						<path class="st0" d="M87.3,41.2L87.3,41.2C87.3,41.2,87.3,41.1,87.3,41.2C87.3,41.1,87.3,41.2,87.3,41.2z"/>
						<path class="st0" d="M87.3,41.2L87.3,41.2C87.3,41.2,87.3,41.2,87.3,41.2z"/>
						<path class="st0" d="M86.8,41.4c-0.2,0-0.5-0.1-0.9,0C86.2,41.4,86.4,41.4,86.8,41.4z"/>
						<path class="st0" d="M86.8,41.2L86.8,41.2c0,0.1,0.2,0,0.3,0.1L86.8,41.2z"/>
						<polygon class="st0" points="86.6,41.2 86.8,41.2 86.8,41.2 						"/>
						<path class="st0" d="M87.5,41c-0.2,0-0.2-0.1-0.2-0.1c-0.1,0-0.1,0.1-0.1,0.1C87.3,41,87.5,41,87.5,41z"/>
						<path class="st0" d="M87.4,41.1L87.4,41.1C87.3,41.1,87.3,41.1,87.4,41.1z"/>
						<path class="st0" d="M87.3,40.6C87.3,40.6,87.2,40.6,87.3,40.6L87.3,40.6L87.3,40.6z"/>
						<path class="st0" d="M87,41c-0.1,0,0,0,0.2,0.1C87.2,41,87.1,41,87,41C87.1,41,87,41,87,41z"/>
						<path class="st0" d="M87.7,40.8c-0.1,0-0.2,0-0.2,0C87.6,40.8,87.8,40.8,87.7,40.8z"/>
						<path class="st0" d="M87.5,41.1C87.5,41.1,87.5,41.1,87.5,41.1C87.6,41.1,87.5,41.1,87.5,41.1z"/>
						<path class="st0" d="M87.5,41.1c-0.1,0-0.2,0-0.3,0c0,0,0.1,0,0.1,0C87.4,41.1,87.4,41.1,87.5,41.1z"/>
						<path class="st0" d="M84.6,40.3c0.4,0,0.8,0.1,0.3,0.2c0.3,0.1,1.6,0.1,2.3,0.2c-0.2,0-0.3,0-0.6-0.1c-0.2,0-0.5,0.1-0.9,0
							c-0.2-0.1,0.1-0.1,0.4-0.1c-0.5,0-0.7-0.2-1.4-0.2l0.2,0.1C84.8,40.3,84.7,40.3,84.6,40.3z"/>
						<path class="st0" d="M87.2,40.7L87.2,40.7c0.1,0,0.3,0,0.6,0c-0.2,0-0.3-0.1-0.5-0.1L87.2,40.7L87.2,40.7z"/>
						<path class="st0" d="M87.2,40.8c-0.4,0-0.6-0.1-1.1-0.1c0,0.1,0.4,0.1,0.5,0.1C86.6,40.7,86.9,40.9,87.2,40.8
							C87.2,40.8,87.2,40.9,87.2,40.8c0.1,0,0.2,0,0.3,0l0,0l0,0l0,0c-0.1,0-0.1,0-0.1,0c0,0,0,0,0,0C87.3,40.8,87.3,40.8,87.2,40.8
							c0.1,0,0.1,0,0.2,0l0.1,0l0,0L87.2,40.8C87.1,40.7,87.2,40.8,87.2,40.8z"/>
						<path class="st0" d="M85,41.3c0,0,0.1,0,0.1,0C85.1,41.3,85,41.3,85,41.3z"/>
						<path class="st0" d="M85.3,41.3c0.1,0,0.2,0,0.2,0c-0.1,0-0.2,0-0.3,0c0.1,0,0.3,0.1,0.5,0l-0.1,0c0.1,0,0.7-0.1,0.7-0.1
							C85.9,41.2,85.7,41.2,85.3,41.3z"/>
						<path class="st0" d="M86.1,41l-0.2-0.1l-0.4,0l0.2,0C85.7,41,86,41,86.1,41z"/>
						<polygon class="st0" points="87.5,40.6 88,40.7 87.3,40.6 						"/>
						<polygon class="st0" points="87.5,40.5 87.8,40.6 87.6,40.5 						"/>
						<path class="st0" d="M86.3,31.9l-0.1-0.1C86.2,31.8,86.3,31.8,86.3,31.9z"/>
						<path class="st0" d="M86.1,32l0.1,0.1C86.2,32.1,86.1,32,86.1,32z"/>
						<path class="st0" d="M88,38c0.4,0.1,0.9,0.3,0.5,0.1L88,38C88.2,38,88.1,38,88,38z"/>
						<path class="st0" d="M86.7,35c0,0-0.1,0-0.1-0.1c0.1,0.1,0.2,0.2,0.3,0.3C86.8,35.2,86.7,35.1,86.7,35z"/>
						<path class="st0" d="M85.2,34l0.3,0.1C85.4,34.1,85.3,34,85.2,34z"/>
						<path class="st0" d="M87,30.5l-0.3-0.4C86.7,30.2,86.9,30.4,87,30.5z"/>
						<path class="st0" d="M87.5,39.4c0.2,0,0.2,0,0.3,0C87.5,39.4,87.1,39.3,87.5,39.4z"/>
						<path class="st0" d="M89.6,35.1c0-0.1-0.1-0.1-0.2-0.2C89.4,35,89.5,35,89.6,35.1z"/>
						<path class="st0" d="M87.8,39.3c0,0-0.1,0-0.1,0C87.7,39.4,87.8,39.4,87.8,39.3C87.9,39.4,88,39.4,87.8,39.3z"/>
						<path class="st0" d="M91.8,28.2C91.9,28.2,91.9,28.2,91.8,28.2C91.9,28.2,91.8,28.2,91.8,28.2z"/>
						<path class="st0" d="M94.3,32.1C94.3,32.1,94.2,32.1,94.3,32.1C94.2,32.1,94.3,32.1,94.3,32.1z"/>
						<path class="st0" d="M87.7,40.1C87.7,40.2,87.7,40.1,87.7,40.1L87.7,40.1z"/>
						<path class="st0" d="M86,40c0,0-0.1,0-0.2,0C85.9,40,85.9,40,86,40z"/>
						<path class="st0" d="M85.2,38.4L85.2,38.4C85.1,38.4,85.1,38.4,85.2,38.4z"/>
						<path class="st0" d="M87.5,40.1c0.1,0,0.1,0,0.1,0C87.6,40.1,87.5,40.1,87.5,40.1z"/>
						<path class="st0" d="M87.7,40.2C87.7,40.2,87.7,40.2,87.7,40.2C87.7,40.2,87.8,40.2,87.7,40.2z"/>
						<path class="st0" d="M87.7,40.1C87.7,40.1,87.7,40.1,87.7,40.1C87.7,40.1,87.7,40.1,87.7,40.1C87.7,40.1,87.7,40.1,87.7,40.1z
							"/>
						<path class="st0" d="M89.9,30.4C89.9,30.4,89.9,30.4,89.9,30.4C89.8,30.3,89.8,30.3,89.9,30.4z"/>
						<path class="st0" d="M84.2,35.5C84.2,35.5,84.2,35.5,84.2,35.5C84.2,35.5,84.2,35.5,84.2,35.5L84.2,35.5z"/>
						<path class="st0" d="M84,35.3c0.5,0.3,0.4,0.3,0.3,0.3l1.1,0.5L84,35.3z"/>
						<path class="st0" d="M86.7,31.3l-0.3-0.2c-0.4-0.5-0.2-0.4-0.6-0.8c0.9,1-0.2,0.4,0.8,1.3l-0.2-0.2c0,0,0-0.1,0-0.1
							c-0.5-0.4,0.6,0.7,0.4,0.7c-0.1,0-0.3-0.1-0.4-0.3l0.2,0.3c0,0-0.2-0.2-0.2-0.2l0,0.2l0,0c0.1,0.2,0.3,0.4,0.4,0.5
							c-0.2-0.1-0.1-0.1-0.2-0.2l0.2,0.3c-0.3-0.2-0.5-0.5-0.4-0.5c-1.1-0.8,0.2,0.3-0.5-0.1L85.6,32c-0.6-0.5-0.5-0.2-0.9-0.5
							c0.2,0.1,1.1,0.6,1.2,0.9c-0.1,0-0.2,0,0,0.2c-0.4-0.3-0.3-0.2-0.3-0.1l-0.5-0.4c0.1,0.2,0.3,0.4,0.5,0.6
							c-0.1,0-0.5-0.3-0.8-0.5c-0.2,0,0.7,0.4,0.7,0.6c-0.3-0.1-0.1,0.2,0.1,0.5c-0.2-0.1-0.3-0.2-0.5-0.3l0.4,0.4
							c0,0-0.1-0.1-0.2-0.1c0.1,0.2,0.5,0.4,0.6,0.6c0.6,0.4-0.9-0.5-0.3,0.1c-0.2-0.1-0.3-0.2-0.5-0.4c0.3,0.4,0.2,0.3,0.8,0.8
							l-0.4-0.2c0.4,0.2,0.9,0.6,1.2,0.9c0.2,0.1,0.4,0.2,0.5,0.2l0.2,0.3c-0.1,0-0.3-0.2-0.5-0.3c0,0,0.1,0.1,0.1,0.1
							c-0.2-0.1-0.5-0.3-0.8-0.5c0.1,0.1,0.2,0.1,0.4,0.2c-0.3-0.2-0.7-0.5-1-0.7c0.1,0,0.1,0.1,0.1,0.1c-0.1-0.1-0.2-0.1-0.2-0.2
							c-0.1,0,0.1,0.1,0.2,0.2L85.1,34l0.2,0.2l-0.5-0.1c0.5,0.5,1.4,1.1,1.6,1.4c-0.4-0.3-0.7-0.4-1.3-0.8c0.6,0.3-0.2-0.3,0-0.3
							c-0.1,0-0.3-0.2-0.4-0.2l0.4,0.5c-0.4-0.3-0.3-0.2-0.6-0.2c0.9,0.5,0.5,0.5,0.7,0.7c-0.3-0.2-0.6-0.3-0.5-0.4
							c-0.7-0.3,1,0.7,0.4,0.5c0,0,0.1,0-0.1-0.1c0.2,0.2,0,0.2-0.3,0l0,0c-0.2,0.1-0.2,0.4,0.5,0.8c-0.1-0.1-0.9-0.5-1.1-0.6
							c0.8,0.5,1.6,1,2.5,1.5c-0.6-0.3-2.3-1-2.6-1.3c-0.1,0-0.2,0,0,0.2c0.1,0,1,0.4,1,0.5c-0.8-0.3-0.4-0.1-1.1-0.3
							c0.2,0,1.2,0.5,1.1,0.6c-0.2-0.1-1-0.5-1.1-0.5l1,0.6c-0.2-0.1-0.9-0.4-1.2-0.5c0.2,0.1-0.1,0.1,0,0.2l0.3,0
							c-0.2,0.1,1.4,0.7,1.3,0.8c-0.2-0.1-1.3-0.6-1.5-0.5c0.5,0.3,2.5,1.1,2.9,1.4l-0.3-0.1l0.3,0.2c-0.8-0.3-2.5-1.1-3.1-1.5
							c-0.3,0-0.4-0.1-0.4,0c-0.3-0.1-0.4-0.2-0.4-0.2l-0.3,0.1c0.6,0.2,0.6,0.4,1.1,0.6l-0.6-0.5c0.6,0.2,1.7,0.8,1.6,0.9
							c-0.3-0.1-1.1-0.4-1.3-0.5c0.2,0.1,0.4,0.3,0.2,0.2l-0.3-0.2c-0.3,0,0.8,0.4,0.2,0.3c-0.1,0-0.9-0.2-0.5,0
							c0.7,0.2,3,0.9,3.6,1.1c-0.1,0-0.7-0.1-1.1-0.2c-0.6-0.1-1.4-0.5-1.9-0.6c0.2,0.1,0.4,0.1,0.5,0.2c-0.2,0-0.5-0.2-0.5-0.1
							c0.7,0.2-0.1,0.1,0.5,0.2c0.2,0.1-0.2,0-0.1,0.1c0.4,0.1,1.4,0.5,1.6,0.6c-0.2,0-0.4-0.1-0.5-0.1c-0.1,0.1-0.4,0.1-0.4,0.2
							c-0.2,0-0.4,0-0.7-0.1c0.1,0,0.3,0.1,0.3,0.2c-0.6-0.1-0.1-0.1-0.8-0.2c0.4,0.1,0.5,0.2,0.7,0.3c0.6,0.1,0.1-0.1-0.1-0.2
							c0.8,0.2,1.7,0.5,2,0.7c0.2,0.1-0.5-0.1-0.4,0c-0.2,0.2,1.4,0.4,0.8,0.4c-0.5,0-1.1-0.2-1.4-0.2c-0.2-0.1,0.4-0.1,0.3-0.1
							l-0.3,0c-0.2-0.1-0.3-0.1-0.1-0.1c-0.5,0-0.2,0.3-0.6,0.4c0.2,0.1,0.4,0.1,0.6,0.1l-0.1-0.1c0.4,0,0.6,0.2,0.8,0.1
							c0.3,0.1,0.8,0.2,0.5,0.3l-0.6-0.1c0.2,0,0.4,0,0.2-0.1c0.3,0.1-0.8,0,0,0.2l0.4,0c0.3,0.1,0.9,0.2,0.7,0.3c0.6,0-0.1,0,0.6,0
							c-0.9-0.1,0.1-0.2-0.9-0.2c0.8,0.1,0.4,0,1.1,0c-0.2,0-0.4,0-0.3-0.1c-0.1,0-0.1,0-0.2,0l0,0l0,0c0,0,0,0,0,0
							c-0.1,0-0.2,0-0.3,0c-0.5-0.1-0.4-0.2-0.7-0.2c0.1,0,0.2,0,0.4,0.1l-0.3-0.1c0.4,0.1,0.8,0,1,0.2l0-0.1c0.3,0,0.4,0,0.2-0.1
							c0.1,0-0.5-0.2-0.1-0.1l-0.3-0.2l0.1,0c0.1-0.1-0.7-0.4,0.1-0.3c-0.1-0.1-0.2-0.1-0.1-0.2l0.4,0.1c-0.1-0.1,0.4,0,0-0.1
							c1,0.2,0.3-0.1,0.5-0.2L88,38.8c0,0-0.1-0.1-0.3-0.3l-0.4-0.1c-0.3-0.2,0.4,0,0.3-0.1c0.2,0.1,0.1,0.1,0,0.1
							c1,0.2-0.6-0.5,0.1-0.3c-0.1-0.1-0.1-0.1,0-0.1c0,0,0,0,0,0c0,0,0,0,0,0c0.1,0,0.2,0,0.2,0.1c-0.1,0-0.2-0.1-0.2-0.1
							c0,0,0-0.1-0.1-0.1l0.5,0.2c0,0,0,0,0,0c0.2,0-0.2-0.1-0.5-0.2c-0.1,0-0.1-0.1-0.3-0.1c0.7,0.3-0.2-0.2,0.6,0.1
							c-0.4-0.2-0.2-0.3-1-0.6c0.1,0,0.2,0.1,0.2,0.1c0.1,0,0.2,0,0-0.1l0.6,0.2l-0.7-0.4c0.4,0.1,0.6,0.2,1,0.4
							c-0.6-0.4-0.2-0.2-0.8-0.6l0.4,0.2c0,0-0.4-0.3-0.1-0.2c0.7,0.3,0.3-0.3,1-0.1c-1-0.6,0.5,0.2-0.3-0.3
							c0.2,0.1,0.4,0.2,0.6,0.3c-0.2-0.2,0.4,0.1-0.2-0.3c0.2,0.1,0.3,0.2,0.5,0.3c0,0-0.2-0.2,0-0.1c0.1,0.1,0.2,0.1,0.3,0.2
							c0-0.1-0.7-0.6-1.4-1c0.3,0.2,0.3,0.1-0.1-0.2c0.2,0.1,0.5,0.3,0.5,0.4c0.1,0,0.4,0-0.1-0.3c0.1,0.1,0.1,0,0-0.1
							c0.1,0,0.1,0,0.1-0.1l-0.1,0c-0.6-0.5-0.1-0.2-0.1-0.3l0.1,0c0.5,0.2-0.2-0.2,0.4,0.1L88,34.9c-0.8-0.6,0.6,0.3,0.3,0
							l-0.2-0.1c-0.2-0.3,1.2,0.8,1.3,0.8c0.1,0.1,0.1,0.1,0.1,0.2c0.5,0.3-0.5-0.4-0.5-0.6c0.3,0.2,0.6,0.6,0.7,0.6
							c0.2,0.2-0.7-0.8-0.2-0.5c-0.2-0.2-0.4-0.3-0.5-0.5c0-0.1,0.8,0.6,0.3,0c0.1,0,0.1,0.1,0.2,0.1c-0.1-0.2-0.2-0.4-0.5-0.7
							c1.2,1.1-0.3-0.8,0.7,0.3l0-0.2l0.1,0.1c0.1,0-0.1-0.3-0.3-0.6c0.1,0.1,0.2,0.2,0.2,0.2c0.3,0.1,0.3,0.1-0.1-0.6l0.3,0.4
							c-0.2-0.2,0.6,0.5,0.4-0.1c0,0,0.1,0.1,0.1,0.2c-0.2-0.6,1.1,0.9,0.1-0.6l-0.2-0.4c-0.2,0-0.4-0.6-0.7-0.9
							c0-0.1,0.4,0.4,0.4,0.5L90,32.6c0.5,0.8,0.3,0.2,0.7,0.7c0.2-0.2,0.7,0.1,0.9,0.1l-0.4-0.6l0.1,0c0.1,0.1,0.3,0.5,0.2,0.5
							c0.2,0.3-0.1-0.3-0.2-0.5c0.2,0.2,0.4,0.8,0.4,0.8l0-0.1l-0.1-0.1c-0.1-0.3-0.3-0.6-0.2-0.6c0.1,0.1,0.2,0.4,0.3,0.4
							c0,0,0,0.1,0,0l0.1,0l-0.3-0.5c-0.1-0.3,0.1,0-0.3-0.6c0.5,0.9,0.5,0.1,0.7,0.4c-0.1-0.4-0.1-0.4,0-0.4
							c-0.1-0.1-0.3-0.7-0.2-0.6c0.5,1.2,0.4,0.5,0.8,1.3c-0.3-0.6,0.1-0.2-0.3-1c0.1,0.1,0.2,0.5,0.4,0.7c-0.1-0.5,0.4,0.2,0.5,0
							c-0.1-0.2-0.2-0.4-0.2-0.7l0.4,0.8c0-0.1-0.3-1,0-0.4c-0.1-0.1-0.1-0.3-0.1-0.4c0.5,0.7,0.5-0.9,1.2,0.6
							c-0.1-0.3-0.1-0.4-0.1-0.4c0-0.1-0.1-0.4-0.1-0.7l0.3,0.6c-0.1-0.7,0.1-0.1,0-0.7l0,0.1c-0.1-0.7-0.4-1.6-0.6-2.6
							c0.1,0.8-0.5-1.2-0.4,0c-0.1-0.2,0-0.3-0.1-0.5c0.1,0.4,0,0.5-0.1,0.3l0-0.1c-0.2,0.2-0.4-0.2-0.7-0.4l0.2,0.4
							c-0.1,0-0.1-0.2-0.2-0.3c0.1,0.7,0.2,0,0.3,0.8c-0.3-0.9-0.4,0.1-0.7-0.9c-0.1,0,0.2,0.5,0.1,0.5L92,28.6l0.1,0.4
							c-0.1,0-0.2-0.4-0.3-0.6c0,0,0-0.1,0-0.1c-0.2-0.3-0.2,0.2-0.2,0.1l0.1,0.1c-0.1,0.3-0.5,0.1-0.5,0.7l0.1,0.2
							c0,0.4-0.2-0.2-0.3,0.1l0-0.1c0.1,0.2,0.1,0.3,0,0.3c-0.1-0.3-0.3-0.4-0.4-0.7c0,0.5,0.1,0.4,0.3,1.2l-0.2-0.3
							c0.1,0.3,0.2,0.5,0.1,0.6c-0.1-0.3-0.3-0.5-0.4-0.9c-0.5-0.6,0.1,0.9-0.5-0.2c0.4,0.9,0.4,0.4,0.5,0.6
							c0.2,0.3,0.3,0.7,0.2,0.6c-0.1,0-0.7-1.1-0.8-1c0,0,0-0.1,0-0.1c-0.2-0.2,0.1,0.4-0.2,0c0.3,0.6-0.1,0,0.3,0.7l0-0.2
							c0,0.2,0.4,1.1,0.1,0.7c-0.1-0.1-0.1-0.3-0.2-0.5c-0.2-0.2,0,0.2-0.1,0c-0.4-0.7,0.1-0.2-0.2-0.8c-0.2-0.3,0.1,0.6-0.3-0.2
							c0.5,1-0.2,0,0.1,0.7l-0.2-0.4c0,0.1,0.1,0.3,0.1,0.3L89,29.4c0.2,0.5-0.4-0.3-0.3,0c0.1-0.1,0.3,0.5,0.6,0.7
							c0.2,0.7-0.8-1-0.9-0.6c0-0.1,0.3,0.2,0.3,0.4c-0.1-0.1-0.2-0.2-0.4-0.4c-0.1,0.2,0.3,0.4,0.4,0.7c-0.4-0.4,0.1,0.2,0.1,0.4
							l-0.3-0.4c-0.3-0.1,0.5,0.9,0.2,0.6l-0.3-0.6l0,0.2L88.2,30c0.2,0.4,0.1,0.3-0.1,0.3c0.2,0.3,0.5,0.7,0.5,0.8
							c-0.2-0.2-0.3-0.4-0.3-0.3c-0.2-0.3-0.4-0.6-0.1-0.3c-0.1-0.1-0.2-0.3-0.2-0.4c-0.2-0.2-0.2,0-0.2,0.1c0,0,0.1,0,0.1,0.1
							l0.3,0.6c-0.1-0.1-0.2-0.3-0.3-0.4c0,0.1,0.1,0.3,0.1,0.3c-0.2-0.3-0.5-0.6-0.5-0.8l0.1,0.4c-0.1-0.1-0.4-0.3-0.4-0.4
							c-0.2-0.1,0.3,0.7,0,0.6c0,0.1,0.1,0.1,0.1,0.2c-0.1,0-0.5-0.3-0.3,0.2l-0.5-0.5c0,0.2,0.7,0.6,0.7,0.9
							c0.1,0.2-0.4-0.4-0.6-0.5c0.2,0.3,0.6,0.9,0.1,0.6C86.6,31.3,86.7,31.4,86.7,31.3z M86,32.5c-0.1-0.1-0.3-0.3,0-0.2
							C86.3,32.7,86.1,32.5,86,32.5z M85.8,34.7c-0.1-0.1,0-0.1,0.1,0C85.9,34.7,85.9,34.7,85.8,34.7z M87.3,39.8
							C87.3,39.8,87.3,39.8,87.3,39.8C87.5,39.8,87.4,39.8,87.3,39.8z M87.1,39.9c0.1,0,0.1,0,0.2,0c-0.1,0-0.1,0-0.1-0.1
							C87.1,39.8,87,39.8,87.1,39.9z M91.7,33.1L91.6,33C91.6,32.8,91.7,32.9,91.7,33.1z"/>
						<path class="st0" d="M85.4,34.1c0.1,0,0.1,0.1,0.2,0.1C85.5,34.2,85.4,34.2,85.4,34.1z"/>
						<polygon class="st0" points="87.1,30.6 87.1,30.6 87,30.5 						"/>
						<path class="st0" d="M83.5,37.5c0.1,0,0.2,0,0.3,0C83.6,37.5,83.5,37.5,83.5,37.5z"/>
						<path class="st0" d="M87.9,40.4l-0.1-0.1c0,0-0.1,0-0.2,0C87.7,40.3,87.9,40.4,87.9,40.4z"/>
						<path class="st0" d="M84.9,40.6C84.9,40.6,84.9,40.6,84.9,40.6l0.3,0C85.1,40.6,85,40.5,84.9,40.6z"/>
						<path class="st0" d="M86.3,40.2c-0.4,0-0.3,0-0.2,0.1c0,0,0,0,0,0C86.6,40.4,86.5,40.3,86.3,40.2z"/>
						<path class="st0" d="M86.1,40.3C86.1,40.3,86.1,40.3,86.1,40.3C86.3,40.4,86.1,40.3,86.1,40.3z"/>
						<path class="st0" d="M87.4,40c-0.1,0,0.5,0.1,0.3,0.1C88.2,40.2,87.1,39.9,87.4,40z"/>
						<polygon class="st0" points="84.9,40.1 85.4,40.2 85,40.1 						"/>
						<path class="st0" d="M85.4,39.8l-0.1,0C85.3,39.9,85.3,39.9,85.4,39.8C85.4,39.9,85.5,39.8,85.4,39.8z"/>
						<path class="st0" d="M85.4,39.9C85.4,39.9,85.4,40,85.4,39.9C85.4,40,85.4,39.9,85.4,39.9z"/>
						<polygon class="st0" points="84.8,40 84.9,40 85,39.9 						"/>
						<path class="st0" d="M85.6,39.1L85.4,39c-0.2,0-0.3,0-0.2,0C85.3,39.1,85.4,39.1,85.6,39.1z"/>
						<path class="st0" d="M84.2,39.1c0.1,0,0.2,0,0.4,0L84,39L84.2,39.1z"/>
						<path class="st0" d="M84.1,38.8c-0.2,0-0.5-0.2-0.4-0.1C83.8,38.8,83.9,38.9,84.1,38.8z"/>
						<polygon class="st0" points="85.1,37.9 85.1,37.9 86.1,38.2 						"/>
						<path class="st0" d="M83.2,36c-0.3,0,0.6,0.3,0.3,0.2c0.2,0.1,0.3,0,0.4,0.1C83.7,36.2,83.9,36.2,83.2,36z"/>
						<path class="st0" d="M83.9,36.4c0,0,0.1,0.1,0.1,0.1C84,36.4,84,36.4,83.9,36.4z"/>
						<polygon class="st0" points="94.5,32.6 94.6,32.8 94.5,32.5 						"/>
						<path class="st0" d="M94.5,31.8l0.1,0.6L94.5,31.8C94.5,31.9,94.5,32,94.5,31.8z"/>
						<path class="st0" d="M84.9,31.8l0.1,0.1c0.1,0.1,0.2,0.1,0.2,0.1L84.9,31.8z"/>
						<polygon class="st0" points="85.9,31.4 85.9,31.4 86.3,31.8 						"/>
						<path class="st0" d="M86,30.2c0,0,0,0.1,0,0.1C85.9,30.2,86.5,30.8,86,30.2z"/>
					</g>
				</g>
			</g>
		</g>
	</g>
</g>
</svg>
